<svg width="40" height="32" viewBox="0 0 40 32" fill="none" xmlns="http://www.w3.org/2000/svg">
<path fill-rule="evenodd" clip-rule="evenodd" d="M8.30813 0C6.02578 0 4.33695 1.99766 4.41258 4.16406C4.48516 6.24539 4.39086 8.94102 3.71227 11.1393C3.03125 13.3437 1.88031 14.7407 0 14.92V16.9444C1.88031 17.1241 3.03125 18.5203 3.71219 20.7251C4.39086 22.9234 4.48508 25.619 4.4125 27.7003C4.33687 29.8664 6.0257 31.8644 8.30844 31.8644H31.6949C33.9773 31.8644 35.6658 29.8667 35.5902 27.7003C35.5176 25.619 35.6119 22.9234 36.2905 20.7251C36.9715 18.5203 38.1196 17.1235 40 16.9444V14.92C38.1197 14.7403 36.9716 13.3441 36.2905 11.1393C35.6118 8.94133 35.5176 6.24539 35.5902 4.16406C35.6658 1.99797 33.9773 0 31.6949 0H8.30781H8.30813ZM27.1187 19.6146C27.1187 22.5977 24.8936 24.4068 21.201 24.4068H14.9152C14.7354 24.4068 14.563 24.3354 14.4358 24.2082C14.3087 24.0811 14.2373 23.9086 14.2373 23.7288V8.13562C14.2373 7.95582 14.3087 7.78337 14.4358 7.65623C14.563 7.52908 14.7354 7.45766 14.9152 7.45766H21.1652C24.2442 7.45766 26.2649 9.12547 26.2649 11.6861C26.2649 13.4834 24.9055 15.0923 23.1737 15.3742V15.468C25.5312 15.7266 27.1187 17.3594 27.1187 19.6146ZM20.5156 9.6068H16.9316V14.6693H19.9502C22.2838 14.6693 23.5705 13.7296 23.5705 12.05C23.5703 10.4759 22.4641 9.6068 20.5156 9.6068ZM16.9316 16.678V22.257H20.6475C23.0772 22.257 24.3641 21.282 24.3641 19.4498C24.3641 17.6177 23.0411 16.6777 20.4912 16.6777H16.9316V16.678Z" fill="#7952B3"/>
</svg>