<svg width="28" height="28" viewBox="0 0 28 28" fill="none" xmlns="http://www.w3.org/2000/svg">
<circle cx="14" cy="14" r="13.5" stroke="#589E9C"/>
<path fill-rule="evenodd" clip-rule="evenodd" d="M14.6049 7.22656C11.014 7.22656 8.125 10.1155 8.125 13.7065C8.125 16.5684 9.98797 18.9984 12.5529 19.8624C12.8769 19.9164 12.9849 19.7274 12.9849 19.5384C12.9849 19.3764 12.9849 18.9714 12.9849 18.4314C11.176 18.8364 10.798 17.5674 10.798 17.5674C10.501 16.8114 10.069 16.6224 10.069 16.6224C9.47498 16.2174 10.123 16.2174 10.123 16.2174C10.771 16.2714 11.122 16.8924 11.122 16.8924C11.6889 17.8914 12.6339 17.5944 13.0119 17.4324C13.0659 17.0004 13.2279 16.7304 13.4169 16.5684C11.9859 16.4064 10.474 15.8394 10.474 13.3555C10.474 12.6535 10.717 12.0595 11.149 11.6275C11.095 11.4655 10.852 10.8175 11.203 9.89952C11.203 9.89952 11.7429 9.73752 12.9849 10.5745C13.4979 10.4395 14.0649 10.3585 14.6049 10.3585C15.1449 10.3585 15.7119 10.4395 16.2249 10.5745C17.4668 9.73752 18.0068 9.89952 18.0068 9.89952C18.3578 10.7905 18.1418 11.4385 18.0608 11.6275C18.4658 12.0865 18.7358 12.6535 18.7358 13.3555C18.7358 15.8394 17.2239 16.3794 15.7659 16.5414C16.0089 16.7304 16.1979 17.1354 16.1979 17.7294C16.1979 18.5934 16.1979 19.2954 16.1979 19.5114C16.1979 19.6734 16.3059 19.8894 16.6569 19.8354C19.2218 18.9984 21.0848 16.5684 21.0848 13.7065C21.0848 10.1155 18.1958 7.22656 14.6049 7.22656Z" fill="#3F3F46"/>
</svg>
